<svg width="1420" height="1420" viewBox="0 0 1420 1420" fill="none" xmlns="http://www.w3.org/2000/svg">
<g opacity="0.2">
<path d="M648.637 425.406L648.142 426.822L648.149 426.825L648.637 425.406ZM607.243 400.793L606.217 401.888L606.223 401.894L606.229 401.899L607.243 400.793ZM579.273 359.399L577.882 359.959L577.886 359.968L577.889 359.977L579.273 359.399ZM579.273 241.555L577.886 240.984L577.882 240.994L579.273 241.555ZM607.243 199.787L608.268 200.883L608.268 200.882L607.243 199.787ZM648.637 175.175L649.111 176.598L649.125 176.593L648.637 175.175ZM749.699 175.92L749.205 177.337L749.218 177.341L749.232 177.346L749.699 175.92ZM791.094 200.533L790.056 201.617L790.068 201.628L790.08 201.639L791.094 200.533ZM819.063 241.928L817.672 242.488L817.677 242.501L817.682 242.514L819.063 241.928ZM819.063 359.399L817.679 358.82L817.675 358.829L817.672 358.838L819.063 359.399ZM791.094 400.793L790.08 399.687L790.074 399.693L790.069 399.698L791.094 400.793ZM749.699 425.406L749.212 423.988L749.205 423.99L749.699 425.406ZM699.355 201.652L699.386 200.152L699.37 200.152H699.355V201.652ZM664.673 208.365L665.203 209.768L665.216 209.763L665.23 209.757L664.673 208.365ZM634.839 227.384L635.884 228.46L634.839 227.384ZM613.582 258.709L612.209 258.105L612.206 258.112L612.203 258.118L613.582 258.709ZM613.582 342.244L612.203 342.835L613.582 342.244ZM634.466 373.197L633.421 374.273L633.428 374.28L633.436 374.287L634.466 373.197ZM664.673 392.589L665.23 391.196L664.673 392.589ZM735.155 392.589L734.609 391.192L734.598 391.196L735.155 392.589ZM764.989 373.197L763.944 372.121L763.936 372.129L763.928 372.136L764.989 373.197ZM785.5 342.244L786.889 342.811L785.5 342.244ZM785.127 258.709L783.748 259.3L785.127 258.709ZM763.87 227.757L762.825 228.833L762.833 228.84L762.84 228.847L763.87 227.757ZM734.036 208.738L733.479 210.13L733.493 210.136L733.506 210.141L734.036 208.738ZM699.355 432.11C681.61 432.11 664.869 429.4 649.125 423.988L648.149 426.825C664.227 432.352 681.299 435.11 699.355 435.11V432.11ZM649.132 423.99C633.656 418.586 620.036 410.485 608.256 399.687L606.229 401.899C618.316 412.979 632.292 421.287 648.142 426.822L649.132 423.99ZM608.268 399.698C596.756 388.921 587.547 375.307 580.657 358.82L577.889 359.977C584.922 376.805 594.359 390.787 606.217 401.888L608.268 399.698ZM580.665 358.838C574.04 342.399 570.704 322.957 570.704 300.477H567.704C567.704 323.245 571.082 343.084 577.882 359.959L580.665 358.838ZM570.704 300.477C570.704 277.997 574.04 258.555 580.665 242.116L577.882 240.994C571.082 257.869 567.704 277.709 567.704 300.477H570.704ZM580.66 242.126C587.551 225.39 596.76 211.655 608.268 200.883L606.217 198.692C594.355 209.798 584.918 223.908 577.886 240.984L580.66 242.126ZM608.268 200.882C620.042 189.844 633.652 181.751 649.111 176.598L648.163 173.751C632.296 179.04 618.31 187.356 606.217 198.693L608.268 200.882ZM649.125 176.593C664.862 171.183 681.595 168.597 699.334 168.843L699.375 165.843C681.313 165.592 664.235 168.227 648.149 173.756L649.125 176.593ZM699.334 168.843C717.085 169.09 733.706 171.924 749.205 177.337L750.194 174.504C734.367 168.977 717.424 166.094 699.375 165.843L699.334 168.843ZM749.232 177.346C764.938 182.499 778.539 190.59 790.056 201.617L792.131 199.45C780.278 188.102 766.284 179.783 750.167 174.495L749.232 177.346ZM790.08 201.639C801.831 212.411 811.034 226.016 817.672 242.488L820.454 241.367C813.667 224.525 804.223 210.534 792.107 199.428L790.08 201.639ZM817.682 242.514C824.547 258.694 828.005 278.002 828.005 300.477H831.005C831.005 277.704 827.502 257.979 820.444 241.342L817.682 242.514ZM828.005 300.477C828.005 322.951 824.547 342.386 817.679 358.82L820.447 359.977C827.502 343.097 831.005 323.251 831.005 300.477H828.005ZM817.672 358.838C811.034 375.311 801.831 388.915 790.08 399.687L792.107 401.899C804.223 390.793 813.667 376.801 820.454 359.959L817.672 358.838ZM790.069 399.698C778.546 410.485 764.934 418.583 749.212 423.988L750.187 426.825C766.288 421.29 780.272 412.979 792.119 401.888L790.069 399.698ZM749.205 423.99C733.713 429.4 717.1 432.11 699.355 432.11V435.11C717.41 435.11 734.36 432.352 750.194 426.822L749.205 423.99ZM699.355 200.152C687.228 200.152 675.479 202.427 664.116 206.972L665.23 209.757C676.242 205.353 687.614 203.152 699.355 203.152V200.152ZM664.143 206.962C652.76 211.262 642.64 217.714 633.794 226.308L635.884 228.46C644.44 220.148 654.21 213.921 665.203 209.768L664.143 206.962ZM633.794 226.308C624.938 234.911 617.747 245.519 612.209 258.105L614.955 259.313C620.356 247.039 627.337 236.763 635.884 228.46L633.794 226.308ZM612.203 258.118C606.889 270.518 604.251 284.647 604.251 300.477H607.251C607.251 284.981 609.833 271.265 614.961 259.3L612.203 258.118ZM604.251 300.477C604.251 316.306 606.889 330.435 612.203 342.835L614.961 341.653C609.833 329.689 607.251 315.973 607.251 300.477H604.251ZM612.203 342.835C617.495 355.182 624.564 365.669 633.421 374.273L635.511 372.121C626.964 363.818 620.111 353.67 614.961 341.653L612.203 342.835ZM633.436 374.287C642.52 382.867 652.749 389.435 664.116 393.982L665.23 391.196C654.221 386.793 644.312 380.433 635.496 372.106L633.436 374.287ZM664.116 393.982C675.479 398.527 687.228 400.802 699.355 400.802V397.802C687.614 397.802 676.242 395.601 665.23 391.196L664.116 393.982ZM699.355 400.802C712.215 400.802 724.338 398.531 735.712 393.982L734.598 391.196C723.597 395.597 711.853 397.802 699.355 397.802V400.802ZM735.702 393.986C747.325 389.437 757.446 382.861 766.05 374.258L763.928 372.136C755.626 380.439 745.858 386.79 734.609 391.192L735.702 393.986ZM766.034 374.273C774.896 365.664 781.845 355.168 786.889 342.811L784.111 341.677C779.21 353.684 772.485 363.824 763.944 372.121L766.034 374.273ZM786.889 342.811C791.947 330.418 794.458 316.298 794.458 300.477H791.458C791.458 315.981 788.997 329.706 784.111 341.677L786.889 342.811ZM794.458 300.477C794.458 284.647 791.82 270.518 786.506 258.118L783.748 259.3C788.876 271.265 791.458 284.981 791.458 300.477H794.458ZM786.506 258.118C781.21 245.762 774.011 235.271 764.9 226.666L762.84 228.847C771.63 237.149 778.602 247.292 783.748 259.3L786.506 258.118ZM764.916 226.681C756.069 218.087 745.949 211.635 734.567 207.334L733.506 210.141C744.499 214.294 754.269 220.521 762.825 228.833L764.916 226.681ZM734.594 207.345C723.24 202.804 711.501 200.405 699.386 200.152L699.323 203.152C711.075 203.397 722.457 205.722 733.479 210.13L734.594 207.345ZM848.967 169.954V168.454H847.467V169.954H848.967ZM1041.4 169.954H1042.9V168.454H1041.4V169.954ZM1041.4 204.263V205.763H1042.9V204.263H1041.4ZM886.632 202.025L887.223 200.646L886.632 202.025ZM877.309 195.685L878.37 194.625L876.898 193.153L875.967 195.014L877.309 195.685ZM876.936 196.431L875.594 195.76L875.111 196.727L875.875 197.492L876.936 196.431ZM882.903 205.754L881.51 206.311L881.533 206.369L881.561 206.425L882.903 205.754ZM885.513 288.916H884.013V290.416H885.513V288.916ZM1036.55 288.916H1038.05V287.416H1036.55V288.916ZM1036.55 319.496V320.996H1038.05V319.496H1036.55ZM886.632 317.258L885.998 318.618L886.036 318.635L886.075 318.651L886.632 317.258ZM876.936 310.546L877.997 309.485L876.936 308.424L875.875 309.485L876.936 310.546ZM876.563 310.919L875.503 309.858L874.442 310.919L875.503 311.979L876.563 310.919ZM882.903 320.615L881.51 321.172L881.526 321.211L881.544 321.249L882.903 320.615ZM885.513 431V432.5H887.013V431H885.513ZM848.967 431H847.467V432.5H848.967V431ZM848.967 171.454H1041.4V168.454H848.967V171.454ZM1039.9 169.954V204.263H1042.9V169.954H1039.9ZM1041.4 202.763H897.074V205.763H1041.4V202.763ZM897.074 202.763C893.814 202.763 890.533 202.065 887.223 200.646L886.041 203.404C889.692 204.968 893.373 205.763 897.074 205.763V202.763ZM887.223 200.646C883.922 199.231 880.972 197.227 878.37 194.625L876.248 196.746C879.115 199.613 882.381 201.835 886.041 203.404L887.223 200.646ZM875.967 195.014L875.594 195.76L878.278 197.102L878.651 196.356L875.967 195.014ZM875.875 197.492C878.199 199.815 880.083 202.744 881.51 206.311L884.296 205.197C882.739 201.306 880.646 198.019 877.997 195.37L875.875 197.492ZM881.561 206.425C883.21 209.722 884.013 212.975 884.013 216.196H887.013C887.013 212.456 886.077 208.747 884.245 205.083L881.561 206.425ZM884.013 216.196V288.916H887.013V216.196H884.013ZM885.513 290.416H1036.55V287.416H885.513V290.416ZM1035.05 288.916V319.496H1038.05V288.916H1035.05ZM1036.55 317.996H897.82V320.996H1036.55V317.996ZM897.82 317.996C894.296 317.996 890.755 317.292 887.189 315.866L886.075 318.651C889.968 320.208 893.885 320.996 897.82 320.996V317.996ZM887.266 315.899C883.685 314.228 880.6 312.088 877.997 309.485L875.875 311.606C878.742 314.473 882.12 316.808 885.998 318.618L887.266 315.899ZM875.875 309.485L875.503 309.858L877.624 311.979L877.997 311.606L875.875 309.485ZM875.503 311.979C878.088 314.565 880.091 317.624 881.51 321.172L884.296 320.058C882.731 316.147 880.508 312.742 877.624 309.858L875.503 311.979ZM881.544 321.249C883.201 324.8 884.013 328.314 884.013 331.802H887.013C887.013 327.832 886.085 323.887 884.262 319.98L881.544 321.249ZM884.013 331.802V431H887.013V331.802H884.013ZM885.513 429.5H848.967V432.5H885.513V429.5ZM850.467 431V169.954H847.467V431H850.467ZM572.188 517.954V516.454H570.688V517.954H572.188ZM768.345 517.954H769.845V516.454H768.345V517.954ZM768.345 552.263V553.763H769.845V552.263H768.345ZM608.734 552.263V550.763H607.234V552.263H608.734ZM608.734 636.916H607.234V638.416H608.734V636.916ZM763.125 636.916H764.625V635.416H763.125V636.916ZM763.125 667.496V668.996H764.625V667.496H763.125ZM608.734 667.496V665.996H607.234V667.496H608.734ZM608.734 744.691H607.234V746.191H608.734V744.691ZM768.345 744.691H769.845V743.191H768.345V744.691ZM768.345 779V780.5H769.845V779H768.345ZM572.188 779H570.688V780.5H572.188V779ZM572.188 519.454H768.345V516.454H572.188V519.454ZM766.845 517.954V552.263H769.845V517.954H766.845ZM768.345 550.763H608.734V553.763H768.345V550.763ZM607.234 552.263V636.916H610.234V552.263H607.234ZM608.734 638.416H763.125V635.416H608.734V638.416ZM761.625 636.916V667.496H764.625V636.916H761.625ZM763.125 665.996H608.734V668.996H763.125V665.996ZM607.234 667.496V744.691H610.234V667.496H607.234ZM608.734 746.191H768.345V743.191H608.734V746.191ZM766.845 744.691V779H769.845V744.691H766.845ZM768.345 777.5H572.188V780.5H768.345V777.5ZM573.688 779V517.954H570.688V779H573.688ZM789.605 779H788.105V780.5H789.605V779ZM789.605 517.954V516.454H788.105V517.954H789.605ZM979.05 536.227L978.173 537.444L979.05 536.227ZM998.442 621.626L999.733 622.391L998.442 621.626ZM985.017 638.408L984.013 637.293L983.958 637.343L983.907 637.399L985.017 638.408ZM976.067 645.866L976.811 647.169L976.845 647.149L976.878 647.128L976.067 645.866ZM964.879 651.087L964.352 649.683L964.879 651.087ZM952.573 654.816L952.229 653.356L952.219 653.359L952.209 653.361L952.573 654.816ZM941.012 657.427L940.718 655.956L939.512 656.197V657.427H941.012ZM941.012 658.173H939.512V659.98L941.288 659.647L941.012 658.173ZM953.691 655.935L953.457 654.454L953.445 654.456L953.691 655.935ZM979.423 656.308L979.011 657.75L979.069 657.767L979.129 657.779L979.423 656.308ZM989.119 660.783L988.169 661.944L988.233 661.996L988.302 662.041L989.119 660.783ZM1007.02 703.669H1005.52L1005.52 703.677L1007.02 703.669ZM1007.39 779V780.5H1008.9L1008.89 778.993L1007.39 779ZM970.473 779H968.973V780.5H970.473V779ZM964.506 690.244L963.483 691.341L963.52 691.376L963.56 691.408L964.506 690.244ZM943.995 685.023V683.523H943.991L943.995 685.023ZM826.524 685.396L826.52 683.896L825.024 683.901V685.396H826.524ZM826.524 779V780.5H828.024V779H826.524ZM929.451 649.223L929.886 650.658L929.9 650.654L929.913 650.65L929.451 649.223ZM965.625 621.626L964.316 620.893L964.305 620.914L964.294 620.934L965.625 621.626ZM953.318 560.84L952.499 562.096L952.505 562.1L952.511 562.104L953.318 560.84ZM826.524 549.652V548.152H825.024V549.652H826.524ZM826.524 652.952H825.024V654.452H826.524V652.952ZM791.105 779V517.954H788.105V779H791.105ZM789.605 519.454H908.94V516.454H789.605V519.454ZM908.94 519.454C938.59 519.454 961.612 525.51 978.173 537.444L979.927 535.01C962.677 522.58 938.958 516.454 908.94 516.454V519.454ZM978.173 537.444C994.589 549.273 1002.91 567.899 1002.91 593.657H1005.91C1005.91 567.206 997.323 547.545 979.927 535.01L978.173 537.444ZM1002.91 593.657C1002.91 605.453 1000.94 614.472 997.152 620.862L999.733 622.391C1003.9 615.355 1005.91 605.729 1005.91 593.657H1002.91ZM997.152 620.862C993.239 627.465 988.856 632.935 984.013 637.293L986.02 639.523C991.122 634.931 995.69 629.213 999.733 622.391L997.152 620.862ZM983.907 637.399C981.519 640.026 978.639 642.43 975.256 644.605L976.878 647.128C980.456 644.828 983.543 642.259 986.127 639.417L983.907 637.399ZM975.322 644.564C971.916 646.511 968.259 648.218 964.352 649.683L965.406 652.492C969.454 650.974 973.257 649.2 976.811 647.169L975.322 644.564ZM964.352 649.683C960.436 651.152 956.395 652.376 952.229 653.356L952.916 656.277C957.203 655.268 961.367 654.006 965.406 652.492L964.352 649.683ZM952.209 653.361C948.252 654.35 944.422 655.215 940.718 655.956L941.306 658.898C945.06 658.147 948.937 657.271 952.936 656.272L952.209 653.361ZM939.512 657.427V658.173H942.512V657.427H939.512ZM941.288 659.647C945.255 658.903 949.472 658.159 953.938 657.415L953.445 654.456C948.961 655.203 944.724 655.951 940.735 656.698L941.288 659.647ZM953.925 657.417C958.573 656.683 963.218 656.316 967.862 656.316V653.316C963.059 653.316 958.257 653.696 953.457 654.454L953.925 657.417ZM967.862 656.316C971.972 656.316 975.685 656.8 979.011 657.75L979.835 654.866C976.2 653.827 972.206 653.316 967.862 653.316V656.316ZM979.129 657.779C982.636 658.481 985.639 659.874 988.169 661.944L990.069 659.622C987.13 657.218 983.668 655.628 979.717 654.837L979.129 657.779ZM988.302 662.041C993.033 665.116 997.104 669.642 1000.49 675.687L1003.11 674.221C999.531 667.836 995.15 662.914 989.936 659.526L988.302 662.041ZM1000.49 675.687C1003.78 681.563 1005.52 690.82 1005.52 703.669H1008.52C1008.52 690.663 1006.78 680.777 1003.11 674.221L1000.49 675.687ZM1005.52 703.677L1005.89 779.007L1008.89 778.993L1008.52 703.662L1005.52 703.677ZM1007.39 777.5H970.473V780.5H1007.39V777.5ZM971.973 779V705.907H968.973V779H971.973ZM971.973 705.907C971.973 698.438 969.907 692.699 965.452 689.08L963.56 691.408C967.061 694.253 968.973 698.956 968.973 705.907H971.973ZM965.53 689.148C961.356 685.253 954.006 683.523 943.995 683.523V686.523C953.874 686.523 960.197 688.274 963.483 691.341L965.53 689.148ZM943.991 683.523L826.52 683.896L826.529 686.896L944 686.523L943.991 683.523ZM825.024 685.396V779H828.024V685.396H825.024ZM826.524 777.5H789.605V780.5H826.524V777.5ZM901.855 654.452C912.169 654.452 921.517 653.194 929.886 650.658L929.016 647.787C920.977 650.223 911.928 651.452 901.855 651.452V654.452ZM929.913 650.65C938.505 647.87 945.994 644.068 952.361 639.229L950.546 636.841C944.482 641.449 937.304 645.106 928.99 647.795L929.913 650.65ZM952.361 639.229C958.733 634.387 963.61 628.752 966.956 622.318L964.294 620.934C961.175 626.932 956.605 632.236 950.546 636.841L952.361 639.229ZM966.934 622.359C970.546 615.909 972.346 608.818 972.346 601.116H969.346C969.346 608.33 967.665 614.913 964.316 620.893L966.934 622.359ZM972.346 601.116C972.346 581.436 966.402 567.412 954.125 559.575L952.511 562.104C963.605 569.185 969.346 582.011 969.346 601.116H972.346ZM954.138 559.583C942.368 551.907 926.256 548.152 905.957 548.152V551.152C925.934 551.152 941.396 554.855 952.499 562.096L954.138 559.583ZM905.957 548.152H826.524V551.152H905.957V548.152ZM825.024 549.652V652.952H828.024V549.652H825.024ZM826.524 654.452H901.855V651.452H826.524V654.452ZM792.958 865.954H794.458V864.454H792.958V865.954ZM792.958 900.263V901.763H794.458V900.263H792.958ZM700.1 897.652L699.466 899.011L699.483 899.019L699.499 899.026L700.1 897.652ZM690.404 890.939L691.465 889.879L690.404 888.818L689.344 889.879L690.404 890.939ZM689.659 891.685L688.598 890.625L687.537 891.685L688.598 892.746L689.659 891.685ZM696.371 901.754L694.997 902.355L695.004 902.372L695.012 902.389L696.371 901.754ZM698.982 1127V1128.5H700.482V1127H698.982ZM662.435 1127H660.935V1128.5H662.435V1127ZM662.435 900.263H663.935V898.763H662.435V900.263ZM568.458 900.263H566.958V901.763H568.458V900.263ZM568.458 865.954V864.454H566.958V865.954H568.458ZM791.458 865.954V900.263H794.458V865.954H791.458ZM792.958 898.763H711.661V901.763H792.958V898.763ZM711.661 898.763C708.17 898.763 704.521 897.949 700.702 896.278L699.499 899.026C703.636 900.836 707.694 901.763 711.661 901.763V898.763ZM700.735 896.293C697.154 894.622 694.069 892.482 691.465 889.879L689.344 892C692.21 894.866 695.589 897.202 699.466 899.011L700.735 896.293ZM689.344 889.879L688.598 890.625L690.719 892.746L691.465 892L689.344 889.879ZM688.598 892.746C691.185 895.333 693.322 898.528 694.997 902.355L697.745 901.153C695.939 897.025 693.602 893.507 690.719 890.625L688.598 892.746ZM695.012 902.389C696.669 905.94 697.482 909.454 697.482 912.942H700.482C700.482 908.972 699.554 905.027 697.73 901.12L695.012 902.389ZM697.482 912.942V1127H700.482V912.942H697.482ZM698.982 1125.5H662.435V1128.5H698.982V1125.5ZM663.935 1127V900.263H660.935V1127H663.935ZM662.435 898.763H568.458V901.763H662.435V898.763ZM569.958 900.263V865.954H566.958V900.263H569.958ZM568.458 867.454H792.958V864.454H568.458V867.454ZM748.374 1127L746.97 1126.47L746.205 1128.5H748.374V1127ZM846.825 865.954V864.454H845.788L845.422 865.424L846.825 865.954ZM900.153 865.954L901.557 865.424L901.191 864.454H900.153V865.954ZM998.605 1127V1128.5H1000.77L1000.01 1126.47L998.605 1127ZM959.448 1127L958.05 1127.54L958.423 1128.5H959.448V1127ZM935.208 1064.72L936.606 1064.18L936.234 1063.22H935.208V1064.72ZM811.398 1064.72V1063.22H810.36L809.994 1064.19L811.398 1064.72ZM787.904 1127V1128.5H788.941L789.307 1127.53L787.904 1127ZM822.958 1032.28L821.555 1031.75L820.79 1033.78H822.958V1032.28ZM891.949 1033.77L891.763 1035.26L891.786 1035.26L891.809 1035.26L891.949 1033.77ZM914.697 1040.85L913.973 1042.17L913.982 1042.17L913.992 1042.18L914.697 1040.85ZM934.09 1060.99L932.791 1061.74L935.494 1060.47L934.09 1060.99ZM873.303 898.771L874.708 898.245L873.307 894.508L871.899 898.242L873.303 898.771ZM749.777 1127.53L848.229 866.483L845.422 865.424L746.97 1126.47L749.777 1127.53ZM846.825 867.454H900.153V864.454H846.825V867.454ZM898.75 866.483L997.202 1127.53L1000.01 1126.47L901.557 865.424L898.75 866.483ZM998.605 1125.5H959.448V1128.5H998.605V1125.5ZM960.846 1126.46L936.606 1064.18L933.81 1065.27L958.05 1127.54L960.846 1126.46ZM935.208 1063.22H811.398V1066.22H935.208V1063.22ZM809.994 1064.19L786.5 1126.47L789.307 1127.53L812.801 1065.25L809.994 1064.19ZM787.904 1125.5H748.374V1128.5H787.904V1125.5ZM822.958 1033.78C822.989 1033.78 823.02 1033.78 823.05 1033.78C823.081 1033.78 823.111 1033.78 823.142 1033.78C823.172 1033.78 823.203 1033.78 823.233 1033.78C823.264 1033.78 823.294 1033.78 823.325 1033.78C823.356 1033.78 823.386 1033.78 823.417 1033.78C823.447 1033.78 823.478 1033.78 823.508 1033.78C823.539 1033.78 823.569 1033.78 823.599 1033.78C823.63 1033.78 823.66 1033.78 823.691 1033.78C823.721 1033.78 823.752 1033.78 823.782 1033.78C823.813 1033.78 823.843 1033.78 823.874 1033.78C823.904 1033.78 823.934 1033.78 823.965 1033.78C823.995 1033.78 824.026 1033.78 824.056 1033.78C824.086 1033.78 824.117 1033.78 824.147 1033.78C824.177 1033.78 824.208 1033.78 824.238 1033.78C824.268 1033.78 824.299 1033.78 824.329 1033.78C824.359 1033.78 824.39 1033.78 824.42 1033.78C824.45 1033.78 824.481 1033.78 824.511 1033.78C824.541 1033.78 824.572 1033.78 824.602 1033.78C824.632 1033.78 824.663 1033.78 824.693 1033.78C824.723 1033.78 824.753 1033.78 824.784 1033.78C824.814 1033.78 824.844 1033.78 824.874 1033.78C824.905 1033.78 824.935 1033.78 824.965 1033.78C824.995 1033.78 825.025 1033.78 825.056 1033.78C825.086 1033.78 825.116 1033.78 825.146 1033.78C825.176 1033.78 825.207 1033.78 825.237 1033.78C825.267 1033.78 825.297 1033.78 825.327 1033.78C825.357 1033.78 825.387 1033.78 825.418 1033.78C825.448 1033.78 825.478 1033.78 825.508 1033.78C825.538 1033.78 825.568 1033.78 825.598 1033.78C825.628 1033.78 825.658 1033.78 825.689 1033.78C825.719 1033.78 825.749 1033.78 825.779 1033.78C825.809 1033.78 825.839 1033.78 825.869 1033.78C825.899 1033.78 825.929 1033.78 825.959 1033.78C825.989 1033.78 826.019 1033.78 826.049 1033.78C826.079 1033.78 826.109 1033.78 826.139 1033.78C826.169 1033.78 826.199 1033.78 826.229 1033.78C826.259 1033.78 826.289 1033.78 826.319 1033.78C826.349 1033.78 826.379 1033.78 826.409 1033.78C826.439 1033.78 826.469 1033.78 826.499 1033.78C826.529 1033.78 826.558 1033.78 826.588 1033.78C826.618 1033.78 826.648 1033.78 826.678 1033.78C826.708 1033.78 826.738 1033.78 826.768 1033.78C826.798 1033.78 826.827 1033.78 826.857 1033.78C826.887 1033.78 826.917 1033.78 826.947 1033.78C826.977 1033.78 827.006 1033.78 827.036 1033.78C827.066 1033.78 827.096 1033.78 827.126 1033.78C827.156 1033.78 827.185 1033.78 827.215 1033.78C827.245 1033.78 827.275 1033.78 827.304 1033.78C827.334 1033.78 827.364 1033.78 827.394 1033.78C827.424 1033.78 827.453 1033.78 827.483 1033.78C827.513 1033.78 827.542 1033.78 827.572 1033.78C827.602 1033.78 827.632 1033.78 827.661 1033.78C827.691 1033.78 827.721 1033.78 827.75 1033.78C827.78 1033.78 827.81 1033.78 827.839 1033.78C827.869 1033.78 827.899 1033.78 827.928 1033.78C827.958 1033.78 827.988 1033.78 828.017 1033.78C828.047 1033.78 828.077 1033.78 828.106 1033.78C828.136 1033.78 828.165 1033.78 828.195 1033.78C828.225 1033.78 828.254 1033.78 828.284 1033.78C828.313 1033.78 828.343 1033.78 828.373 1033.78C828.402 1033.78 828.432 1033.78 828.461 1033.78C828.491 1033.78 828.52 1033.78 828.55 1033.78C828.579 1033.78 828.609 1033.78 828.638 1033.78C828.668 1033.78 828.697 1033.78 828.727 1033.78C828.756 1033.78 828.786 1033.78 828.815 1033.78C828.845 1033.78 828.874 1033.78 828.904 1033.78C828.933 1033.78 828.963 1033.78 828.992 1033.78C829.022 1033.78 829.051 1033.78 829.081 1033.78C829.11 1033.78 829.139 1033.78 829.169 1033.78C829.198 1033.78 829.228 1033.78 829.257 1033.78C829.286 1033.78 829.316 1033.78 829.345 1033.78C829.375 1033.78 829.404 1033.78 829.433 1033.78C829.463 1033.78 829.492 1033.78 829.521 1033.78C829.551 1033.78 829.58 1033.78 829.609 1033.78C829.639 1033.78 829.668 1033.78 829.697 1033.78C829.727 1033.78 829.756 1033.78 829.785 1033.78C829.815 1033.78 829.844 1033.78 829.873 1033.78C829.902 1033.78 829.932 1033.78 829.961 1033.78C829.99 1033.78 830.019 1033.78 830.049 1033.78C830.078 1033.78 830.107 1033.78 830.136 1033.78C830.166 1033.78 830.195 1033.78 830.224 1033.78C830.253 1033.78 830.282 1033.78 830.312 1033.78C830.341 1033.78 830.37 1033.78 830.399 1033.78C830.428 1033.78 830.458 1033.78 830.487 1033.78C830.516 1033.78 830.545 1033.78 830.574 1033.78C830.603 1033.78 830.632 1033.78 830.661 1033.78C830.691 1033.78 830.72 1033.78 830.749 1033.78C830.778 1033.78 830.807 1033.78 830.836 1033.78C830.865 1033.78 830.894 1033.78 830.923 1033.78C830.952 1033.78 830.982 1033.78 831.011 1033.78C831.04 1033.78 831.069 1033.78 831.098 1033.78C831.127 1033.78 831.156 1033.78 831.185 1033.78C831.214 1033.78 831.243 1033.78 831.272 1033.78C831.301 1033.78 831.33 1033.78 831.359 1033.78C831.388 1033.78 831.417 1033.78 831.446 1033.78C831.475 1033.78 831.504 1033.78 831.533 1033.78C831.562 1033.78 831.591 1033.78 831.619 1033.78C831.648 1033.78 831.677 1033.78 831.706 1033.78C831.735 1033.78 831.764 1033.78 831.793 1033.78C831.822 1033.78 831.851 1033.78 831.88 1033.78C831.909 1033.78 831.937 1033.78 831.966 1033.78C831.995 1033.78 832.024 1033.78 832.053 1033.78C832.082 1033.78 832.111 1033.78 832.139 1033.78C832.168 1033.78 832.197 1033.78 832.226 1033.78C832.255 1033.78 832.283 1033.78 832.312 1033.78C832.341 1033.78 832.37 1033.78 832.399 1033.78C832.427 1033.78 832.456 1033.78 832.485 1033.78C832.514 1033.78 832.543 1033.78 832.571 1033.78C832.6 1033.78 832.629 1033.78 832.657 1033.78C832.686 1033.78 832.715 1033.78 832.744 1033.78C832.772 1033.78 832.801 1033.78 832.83 1033.78C832.858 1033.78 832.887 1033.78 832.916 1033.78C832.944 1033.78 832.973 1033.78 833.002 1033.78C833.03 1033.78 833.059 1033.78 833.088 1033.78C833.116 1033.78 833.145 1033.78 833.174 1033.78C833.202 1033.78 833.231 1033.78 833.26 1033.78C833.288 1033.78 833.317 1033.78 833.345 1033.78C833.374 1033.78 833.403 1033.78 833.431 1033.78C833.46 1033.78 833.488 1033.78 833.517 1033.78C833.545 1033.78 833.574 1033.78 833.602 1033.78C833.631 1033.78 833.66 1033.78 833.688 1033.78C833.717 1033.78 833.745 1033.78 833.774 1033.78C833.802 1033.78 833.831 1033.78 833.859 1033.78C833.888 1033.78 833.916 1033.78 833.945 1033.78C833.973 1033.78 834.002 1033.78 834.03 1033.78C834.058 1033.78 834.087 1033.78 834.115 1033.78C834.144 1033.78 834.172 1033.78 834.201 1033.78C834.229 1033.78 834.257 1033.78 834.286 1033.78C834.314 1033.78 834.343 1033.78 834.371 1033.78C834.399 1033.78 834.428 1033.78 834.456 1033.78C834.485 1033.78 834.513 1033.78 834.541 1033.78C834.57 1033.78 834.598 1033.78 834.626 1033.78C834.655 1033.78 834.683 1033.78 834.711 1033.78C834.74 1033.78 834.768 1033.78 834.796 1033.78C834.825 1033.78 834.853 1033.78 834.881 1033.78C834.909 1033.78 834.938 1033.78 834.966 1033.78C834.994 1033.78 835.023 1033.78 835.051 1033.78C835.079 1033.78 835.107 1033.78 835.135 1033.78C835.164 1033.78 835.192 1033.78 835.22 1033.78C835.248 1033.78 835.277 1033.78 835.305 1033.78C835.333 1033.78 835.361 1033.78 835.389 1033.78C835.418 1033.78 835.446 1033.78 835.474 1033.78C835.502 1033.78 835.53 1033.78 835.558 1033.78C835.587 1033.78 835.615 1033.78 835.643 1033.78C835.671 1033.78 835.699 1033.78 835.727 1033.78C835.755 1033.78 835.783 1033.78 835.812 1033.78C835.84 1033.78 835.868 1033.78 835.896 1033.78C835.924 1033.78 835.952 1033.78 835.98 1033.78C836.008 1033.78 836.036 1033.78 836.064 1033.78C836.092 1033.78 836.12 1033.78 836.148 1033.78C836.176 1033.78 836.204 1033.78 836.232 1033.78C836.26 1033.78 836.288 1033.78 836.316 1033.78C836.344 1033.78 836.372 1033.78 836.4 1033.78C836.428 1033.78 836.456 1033.78 836.484 1033.78C836.512 1033.78 836.54 1033.78 836.568 1033.78C836.596 1033.78 836.624 1033.78 836.652 1033.78C836.68 1033.78 836.708 1033.78 836.736 1033.78C836.764 1033.78 836.792 1033.78 836.819 1033.78C836.847 1033.78 836.875 1033.78 836.903 1033.78C836.931 1033.78 836.959 1033.78 836.987 1033.78C837.014 1033.78 837.042 1033.78 837.07 1033.78C837.098 1033.78 837.126 1033.78 837.154 1033.78C837.182 1033.78 837.209 1033.78 837.237 1033.78C837.265 1033.78 837.293 1033.78 837.321 1033.78C837.348 1033.78 837.376 1033.78 837.404 1033.78C837.432 1033.78 837.459 1033.78 837.487 1033.78C837.515 1033.78 837.543 1033.78 837.57 1033.78C837.598 1033.78 837.626 1033.78 837.654 1033.78C837.681 1033.78 837.709 1033.78 837.737 1033.78C837.764 1033.78 837.792 1033.78 837.82 1033.78C837.848 1033.78 837.875 1033.78 837.903 1033.78C837.931 1033.78 837.958 1033.78 837.986 1033.78C838.014 1033.78 838.041 1033.78 838.069 1033.78C838.096 1033.78 838.124 1033.78 838.152 1033.78C838.179 1033.78 838.207 1033.78 838.235 1033.78C838.262 1033.78 838.29 1033.78 838.317 1033.78C838.345 1033.78 838.373 1033.78 838.4 1033.78C838.428 1033.78 838.455 1033.78 838.483 1033.78C838.51 1033.78 838.538 1033.78 838.565 1033.78C838.593 1033.78 838.62 1033.78 838.648 1033.78C838.676 1033.78 838.703 1033.78 838.731 1033.78C838.758 1033.78 838.786 1033.78 838.813 1033.78C838.841 1033.78 838.868 1033.78 838.895 1033.78C838.923 1033.78 838.95 1033.78 838.978 1033.78C839.005 1033.78 839.033 1033.78 839.06 1033.78C839.088 1033.78 839.115 1033.78 839.142 1033.78C839.17 1033.78 839.197 1033.78 839.225 1033.78C839.252 1033.78 839.279 1033.78 839.307 1033.78C839.334 1033.78 839.362 1033.78 839.389 1033.78C839.416 1033.78 839.444 1033.78 839.471 1033.78C839.498 1033.78 839.526 1033.78 839.553 1033.78C839.58 1033.78 839.608 1033.78 839.635 1033.78C839.662 1033.78 839.69 1033.78 839.717 1033.78C839.744 1033.78 839.771 1033.78 839.799 1033.78C839.826 1033.78 839.853 1033.78 839.881 1033.78C839.908 1033.78 839.935 1033.78 839.962 1033.78C839.99 1033.78 840.017 1033.78 840.044 1033.78C840.071 1033.78 840.099 1033.78 840.126 1033.78C840.153 1033.78 840.18 1033.78 840.207 1033.78C840.235 1033.78 840.262 1033.78 840.289 1033.78C840.316 1033.78 840.343 1033.78 840.37 1033.78C840.398 1033.78 840.425 1033.78 840.452 1033.78C840.479 1033.78 840.506 1033.78 840.533 1033.78C840.56 1033.78 840.587 1033.78 840.615 1033.78C840.642 1033.78 840.669 1033.78 840.696 1033.78C840.723 1033.78 840.75 1033.78 840.777 1033.78C840.804 1033.78 840.831 1033.78 840.858 1033.78C840.885 1033.78 840.912 1033.78 840.939 1033.78C840.967 1033.78 840.994 1033.78 841.021 1033.78C841.048 1033.78 841.075 1033.78 841.102 1033.78C841.129 1033.78 841.156 1033.78 841.183 1033.78C841.21 1033.78 841.237 1033.78 841.264 1033.78C841.291 1033.78 841.318 1033.78 841.344 1033.78C841.371 1033.78 841.398 1033.78 841.425 1033.78C841.452 1033.78 841.479 1033.78 841.506 1033.78C841.533 1033.78 841.56 1033.78 841.587 1033.78C841.614 1033.78 841.641 1033.78 841.668 1033.78C841.694 1033.78 841.721 1033.78 841.748 1033.78C841.775 1033.78 841.802 1033.78 841.829 1033.78C841.856 1033.78 841.882 1033.78 841.909 1033.78C841.936 1033.78 841.963 1033.78 841.99 1033.78C842.017 1033.78 842.043 1033.78 842.07 1033.78C842.097 1033.78 842.124 1033.78 842.151 1033.78C842.177 1033.78 842.204 1033.78 842.231 1033.78C842.258 1033.78 842.284 1033.78 842.311 1033.78C842.338 1033.78 842.365 1033.78 842.391 1033.78C842.418 1033.78 842.445 1033.78 842.472 1033.78C842.498 1033.78 842.525 1033.78 842.552 1033.78C842.578 1033.78 842.605 1033.78 842.632 1033.78C842.658 1033.78 842.685 1033.78 842.712 1033.78C842.738 1033.78 842.765 1033.78 842.792 1033.78C842.818 1033.78 842.845 1033.78 842.872 1033.78C842.898 1033.78 842.925 1033.78 842.952 1033.78C842.978 1033.78 843.005 1033.78 843.031 1033.78C843.058 1033.78 843.085 1033.78 843.111 1033.78C843.138 1033.78 843.164 1033.78 843.191 1033.78C843.217 1033.78 843.244 1033.78 843.27 1033.78C843.297 1033.78 843.324 1033.78 843.35 1033.78C843.377 1033.78 843.403 1033.78 843.43 1033.78C843.456 1033.78 843.483 1033.78 843.509 1033.78C843.536 1033.78 843.562 1033.78 843.589 1033.78C843.615 1033.78 843.642 1033.78 843.668 1033.78C843.694 1033.78 843.721 1033.78 843.747 1033.78C843.774 1033.78 843.8 1033.78 843.827 1033.78C843.853 1033.78 843.88 1033.78 843.906 1033.78C843.932 1033.78 843.959 1033.78 843.985 1033.78C844.012 1033.78 844.038 1033.78 844.064 1033.78C844.091 1033.78 844.117 1033.78 844.143 1033.78C844.17 1033.78 844.196 1033.78 844.222 1033.78C844.249 1033.78 844.275 1033.78 844.301 1033.78C844.328 1033.78 844.354 1033.78 844.38 1033.78C844.407 1033.78 844.433 1033.78 844.459 1033.78C844.486 1033.78 844.512 1033.78 844.538 1033.78C844.564 1033.78 844.591 1033.78 844.617 1033.78C844.643 1033.78 844.669 1033.78 844.696 1033.78C844.722 1033.78 844.748 1033.78 844.774 1033.78C844.801 1033.78 844.827 1033.78 844.853 1033.78C844.879 1033.78 844.905 1033.78 844.932 1033.78C844.958 1033.78 844.984 1033.78 845.01 1033.78C845.036 1033.78 845.062 1033.78 845.089 1033.78C845.115 1033.78 845.141 1033.78 845.167 1033.78C845.193 1033.78 845.219 1033.78 845.245 1033.78C845.272 1033.78 845.298 1033.78 845.324 1033.78C845.35 1033.78 845.376 1033.78 845.402 1033.78C845.428 1033.78 845.454 1033.78 845.48 1033.78C845.506 1033.78 845.532 1033.78 845.558 1033.78C845.584 1033.78 845.611 1033.78 845.637 1033.78C845.663 1033.78 845.689 1033.78 845.715 1033.78C845.741 1033.78 845.767 1033.78 845.793 1033.78C845.819 1033.78 845.845 1033.78 845.871 1033.78C845.897 1033.78 845.923 1033.78 845.949 1033.78C845.974 1033.78 846 1033.78 846.026 1033.78C846.052 1033.78 846.078 1033.78 846.104 1033.78C846.13 1033.78 846.156 1033.78 846.182 1033.78C846.208 1033.78 846.234 1033.78 846.26 1033.78C846.286 1033.78 846.311 1033.78 846.337 1033.78C846.363 1033.78 846.389 1033.78 846.415 1033.78C846.441 1033.78 846.467 1033.78 846.493 1033.78C846.518 1033.78 846.544 1033.78 846.57 1033.78C846.596 1033.78 846.622 1033.78 846.648 1033.78C846.673 1033.78 846.699 1033.78 846.725 1033.78C846.751 1033.78 846.777 1033.78 846.802 1033.78C846.828 1033.78 846.854 1033.78 846.88 1033.78C846.905 1033.78 846.931 1033.78 846.957 1033.78C846.983 1033.78 847.008 1033.78 847.034 1033.78C847.06 1033.78 847.085 1033.78 847.111 1033.78C847.137 1033.78 847.163 1033.78 847.188 1033.78C847.214 1033.78 847.24 1033.78 847.265 1033.78C847.291 1033.78 847.317 1033.78 847.342 1033.78C847.368 1033.78 847.394 1033.78 847.419 1033.78C847.445 1033.78 847.471 1033.78 847.496 1033.78C847.522 1033.78 847.547 1033.78 847.573 1033.78C847.599 1033.78 847.624 1033.78 847.65 1033.78C847.675 1033.78 847.701 1033.78 847.727 1033.78C847.752 1033.78 847.778 1033.78 847.803 1033.78C847.829 1033.78 847.854 1033.78 847.88 1033.78C847.905 1033.78 847.931 1033.78 847.957 1033.78C847.982 1033.78 848.008 1033.78 848.033 1033.78C848.059 1033.78 848.084 1033.78 848.11 1033.78C848.135 1033.78 848.16 1033.78 848.186 1033.78C848.211 1033.78 848.237 1033.78 848.262 1033.78C848.288 1033.78 848.313 1033.78 848.339 1033.78C848.364 1033.78 848.39 1033.78 848.415 1033.78C848.44 1033.78 848.466 1033.78 848.491 1033.78C848.517 1033.78 848.542 1033.78 848.567 1033.78C848.593 1033.78 848.618 1033.78 848.643 1033.78C848.669 1033.78 848.694 1033.78 848.72 1033.78C848.745 1033.78 848.77 1033.78 848.796 1033.78C848.821 1033.78 848.846 1033.78 848.872 1033.78C848.897 1033.78 848.922 1033.78 848.948 1033.78C848.973 1033.78 848.998 1033.78 849.023 1033.78C849.049 1033.78 849.074 1033.78 849.099 1033.78C849.124 1033.78 849.15 1033.78 849.175 1033.78C849.2 1033.78 849.225 1033.78 849.251 1033.78C849.276 1033.78 849.301 1033.78 849.326 1033.78C849.352 1033.78 849.377 1033.78 849.402 1033.78C849.427 1033.78 849.452 1033.78 849.478 1033.78C849.503 1033.78 849.528 1033.78 849.553 1033.78C849.578 1033.78 849.603 1033.78 849.629 1033.78C849.654 1033.78 849.679 1033.78 849.704 1033.78C849.729 1033.78 849.754 1033.78 849.779 1033.78C849.804 1033.78 849.829 1033.78 849.855 1033.78C849.88 1033.78 849.905 1033.78 849.93 1033.78C849.955 1033.78 849.98 1033.78 850.005 1033.78C850.03 1033.78 850.055 1033.78 850.08 1033.78C850.105 1033.78 850.13 1033.78 850.155 1033.78C850.18 1033.78 850.205 1033.78 850.23 1033.78C850.255 1033.78 850.28 1033.78 850.305 1033.78C850.33 1033.78 850.355 1033.78 850.38 1033.78C850.405 1033.78 850.43 1033.78 850.455 1033.78C850.48 1033.78 850.505 1033.78 850.53 1033.78C850.555 1033.78 850.58 1033.78 850.605 1033.78C850.63 1033.78 850.655 1033.78 850.68 1033.78C850.705 1033.78 850.729 1033.78 850.754 1033.78C850.779 1033.78 850.804 1033.78 850.829 1033.78C850.854 1033.78 850.879 1033.78 850.904 1033.78C850.928 1033.78 850.953 1033.78 850.978 1033.78C851.003 1033.78 851.028 1033.78 851.053 1033.78C851.077 1033.78 851.102 1033.78 851.127 1033.78C851.152 1033.78 851.177 1033.78 851.201 1033.78C851.226 1033.78 851.251 1033.78 851.276 1033.78C851.301 1033.78 851.325 1033.78 851.35 1033.78C851.375 1033.78 851.4 1033.78 851.424 1033.78C851.449 1033.78 851.474 1033.78 851.498 1033.78C851.523 1033.78 851.548 1033.78 851.573 1033.78C851.597 1033.78 851.622 1033.78 851.647 1033.78C851.671 1033.78 851.696 1033.78 851.721 1033.78C851.745 1033.78 851.77 1033.78 851.795 1033.78C851.819 1033.78 851.844 1033.78 851.869 1033.78C851.893 1033.78 851.918 1033.78 851.942 1033.78C851.967 1033.78 851.992 1033.78 852.016 1033.78C852.041 1033.78 852.065 1033.78 852.09 1033.78C852.115 1033.78 852.139 1033.78 852.164 1033.78C852.188 1033.78 852.213 1033.78 852.237 1033.78C852.262 1033.78 852.287 1033.78 852.311 1033.78C852.336 1033.78 852.36 1033.78 852.385 1033.78C852.409 1033.78 852.434 1033.78 852.458 1033.78C852.483 1033.78 852.507 1033.78 852.532 1033.78C852.556 1033.78 852.581 1033.78 852.605 1033.78C852.629 1033.78 852.654 1033.78 852.678 1033.78C852.703 1033.78 852.727 1033.78 852.752 1033.78C852.776 1033.78 852.801 1033.78 852.825 1033.78C852.849 1033.78 852.874 1033.78 852.898 1033.78C852.923 1033.78 852.947 1033.78 852.971 1033.78C852.996 1033.78 853.02 1033.78 853.044 1033.78C853.069 1033.78 853.093 1033.78 853.117 1033.78C853.142 1033.78 853.166 1033.78 853.19 1033.78C853.215 1033.78 853.239 1033.78 853.263 1033.78C853.288 1033.78 853.312 1033.78 853.336 1033.78C853.361 1033.78 853.385 1033.78 853.409 1033.78C853.433 1033.78 853.458 1033.78 853.482 1033.78C853.506 1033.78 853.531 1033.78 853.555 1033.78C853.579 1033.78 853.603 1033.78 853.627 1033.78C853.652 1033.78 853.676 1033.78 853.7 1033.78C853.724 1033.78 853.749 1033.78 853.773 1033.78C853.797 1033.78 853.821 1033.78 853.845 1033.78C853.869 1033.78 853.894 1033.78 853.918 1033.78C853.942 1033.78 853.966 1033.78 853.99 1033.78C854.014 1033.78 854.038 1033.78 854.063 1033.78C854.087 1033.78 854.111 1033.78 854.135 1033.78C854.159 1033.78 854.183 1033.78 854.207 1033.78C854.231 1033.78 854.255 1033.78 854.279 1033.78C854.303 1033.78 854.328 1033.78 854.352 1033.78C854.376 1033.78 854.4 1033.78 854.424 1033.78C854.448 1033.78 854.472 1033.78 854.496 1033.78C854.52 1033.78 854.544 1033.78 854.568 1033.78C854.592 1033.78 854.616 1033.78 854.64 1033.78C854.664 1033.78 854.688 1033.78 854.712 1033.78C854.736 1033.78 854.76 1033.78 854.784 1033.78C854.808 1033.78 854.832 1033.78 854.855 1033.78C854.879 1033.78 854.903 1033.78 854.927 1033.78C854.951 1033.78 854.975 1033.78 854.999 1033.78C855.023 1033.78 855.047 1033.78 855.071 1033.78C855.095 1033.78 855.118 1033.78 855.142 1033.78C855.166 1033.78 855.19 1033.78 855.214 1033.78C855.238 1033.78 855.262 1033.78 855.285 1033.78C855.309 1033.78 855.333 1033.78 855.357 1033.78C855.381 1033.78 855.404 1033.78 855.428 1033.78C855.452 1033.78 855.476 1033.78 855.5 1033.78C855.523 1033.78 855.547 1033.78 855.571 1033.78C855.595 1033.78 855.618 1033.78 855.642 1033.78C855.666 1033.78 855.69 1033.78 855.713 1033.78C855.737 1033.78 855.761 1033.78 855.785 1033.78C855.808 1033.78 855.832 1033.78 855.856 1033.78C855.879 1033.78 855.903 1033.78 855.927 1033.78C855.95 1033.78 855.974 1033.78 855.998 1033.78C856.021 1033.78 856.045 1033.78 856.069 1033.78C856.092 1033.78 856.116 1033.78 856.14 1033.78C856.163 1033.78 856.187 1033.78 856.21 1033.78C856.234 1033.78 856.258 1033.78 856.281 1033.78C856.305 1033.78 856.328 1033.78 856.352 1033.78C856.376 1033.78 856.399 1033.78 856.423 1033.78C856.446 1033.78 856.47 1033.78 856.493 1033.78C856.517 1033.78 856.54 1033.78 856.564 1033.78C856.587 1033.78 856.611 1033.78 856.634 1033.78C856.658 1033.78 856.681 1033.78 856.705 1033.78C856.728 1033.78 856.752 1033.78 856.775 1033.78C856.799 1033.78 856.822 1033.78 856.846 1033.78C856.869 1033.78 856.893 1033.78 856.916 1033.78C856.94 1033.78 856.963 1033.78 856.986 1033.78C857.01 1033.78 857.033 1033.78 857.057 1033.78C857.08 1033.78 857.103 1033.78 857.127 1033.78C857.15 1033.78 857.174 1033.78 857.197 1033.78C857.22 1033.78 857.244 1033.78 857.267 1033.78C857.29 1033.78 857.314 1033.78 857.337 1033.78C857.36 1033.78 857.384 1033.78 857.407 1033.78C857.43 1033.78 857.454 1033.78 857.477 1033.78C857.5 1033.78 857.524 1033.78 857.547 1033.78C857.57 1033.78 857.593 1033.78 857.617 1033.78C857.64 1033.78 857.663 1033.78 857.687 1033.78C857.71 1033.78 857.733 1033.78 857.756 1033.78C857.779 1033.78 857.803 1033.78 857.826 1033.78C857.849 1033.78 857.872 1033.78 857.896 1033.78C857.919 1033.78 857.942 1033.78 857.965 1033.78C857.988 1033.78 858.011 1033.78 858.035 1033.78C858.058 1033.78 858.081 1033.78 858.104 1033.78C858.127 1033.78 858.15 1033.78 858.174 1033.78C858.197 1033.78 858.22 1033.78 858.243 1033.78C858.266 1033.78 858.289 1033.78 858.312 1033.78C858.335 1033.78 858.358 1033.78 858.382 1033.78C858.405 1033.78 858.428 1033.78 858.451 1033.78C858.474 1033.78 858.497 1033.78 858.52 1033.78C858.543 1033.78 858.566 1033.78 858.589 1033.78C858.612 1033.78 858.635 1033.78 858.658 1033.78C858.681 1033.78 858.704 1033.78 858.727 1033.78C858.75 1033.78 858.773 1033.78 858.796 1033.78C858.819 1033.78 858.842 1033.78 858.865 1033.78C858.888 1033.78 858.911 1033.78 858.934 1033.78C858.957 1033.78 858.98 1033.78 859.003 1033.78C859.026 1033.78 859.048 1033.78 859.071 1033.78C859.094 1033.78 859.117 1033.78 859.14 1033.78C859.163 1033.78 859.186 1033.78 859.209 1033.78C859.232 1033.78 859.254 1033.78 859.277 1033.78C859.3 1033.78 859.323 1033.78 859.346 1033.78C859.369 1033.78 859.392 1033.78 859.414 1033.78C859.437 1033.78 859.46 1033.78 859.483 1033.78C859.506 1033.78 859.528 1033.78 859.551 1033.78C859.574 1033.78 859.597 1033.78 859.62 1033.78C859.642 1033.78 859.665 1033.78 859.688 1033.78C859.711 1033.78 859.733 1033.78 859.756 1033.78C859.779 1033.78 859.802 1033.78 859.824 1033.78C859.847 1033.78 859.87 1033.78 859.892 1033.78C859.915 1033.78 859.938 1033.78 859.96 1033.78C859.983 1033.78 860.006 1033.78 860.029 1033.78C860.051 1033.78 860.074 1033.78 860.096 1033.78C860.119 1033.78 860.142 1033.78 860.164 1033.78C860.187 1033.78 860.21 1033.78 860.232 1033.78C860.255 1033.78 860.278 1033.78 860.3 1033.78C860.323 1033.78 860.345 1033.78 860.368 1033.78C860.391 1033.78 860.413 1033.78 860.436 1033.78C860.458 1033.78 860.481 1033.78 860.503 1033.78C860.526 1033.78 860.548 1033.78 860.571 1033.78C860.594 1033.78 860.616 1033.78 860.639 1033.78C860.661 1033.78 860.684 1033.78 860.706 1033.78C860.729 1033.78 860.751 1033.78 860.774 1033.78C860.796 1033.78 860.818 1033.78 860.841 1033.78C860.863 1033.78 860.886 1033.78 860.908 1033.78C860.931 1033.78 860.953 1033.78 860.976 1033.78C860.998 1033.78 861.021 1033.78 861.043 1033.78C861.065 1033.78 861.088 1033.78 861.11 1033.78C861.133 1033.78 861.155 1033.78 861.177 1033.78C861.2 1033.78 861.222 1033.78 861.244 1033.78C861.267 1033.78 861.289 1033.78 861.311 1033.78C861.334 1033.78 861.356 1033.78 861.379 1033.78C861.401 1033.78 861.423 1033.78 861.445 1033.78C861.468 1033.78 861.49 1033.78 861.512 1033.78C861.535 1033.78 861.557 1033.78 861.579 1033.78C861.602 1033.78 861.624 1033.78 861.646 1033.78C861.668 1033.78 861.691 1033.78 861.713 1033.78C861.735 1033.78 861.757 1033.78 861.78 1033.78C861.802 1033.78 861.824 1033.78 861.846 1033.78C861.868 1033.78 861.891 1033.78 861.913 1033.78C861.935 1033.78 861.957 1033.78 861.979 1033.78C862.001 1033.78 862.024 1033.78 862.046 1033.78C862.068 1033.78 862.09 1033.78 862.112 1033.78C862.134 1033.78 862.157 1033.78 862.179 1033.78C862.201 1033.78 862.223 1033.78 862.245 1033.78C862.267 1033.78 862.289 1033.78 862.311 1033.78C862.333 1033.78 862.355 1033.78 862.378 1033.78C862.4 1033.78 862.422 1033.78 862.444 1033.78C862.466 1033.78 862.488 1033.78 862.51 1033.78C862.532 1033.78 862.554 1033.78 862.576 1033.78C862.598 1033.78 862.62 1033.78 862.642 1033.78C862.664 1033.78 862.686 1033.78 862.708 1033.78C862.73 1033.78 862.752 1033.78 862.774 1033.78C862.796 1033.78 862.818 1033.78 862.84 1033.78C862.862 1033.78 862.884 1033.78 862.906 1033.78C862.928 1033.78 862.95 1033.78 862.971 1033.78C862.993 1033.78 863.015 1033.78 863.037 1033.78C863.059 1033.78 863.081 1033.78 863.103 1033.78C863.125 1033.78 863.147 1033.78 863.168 1033.78C863.19 1033.78 863.212 1033.78 863.234 1033.78V1030.78C863.212 1030.78 863.19 1030.78 863.168 1030.78C863.147 1030.78 863.125 1030.78 863.103 1030.78C863.081 1030.78 863.059 1030.78 863.037 1030.78C863.015 1030.78 862.993 1030.78 862.971 1030.78C862.95 1030.78 862.928 1030.78 862.906 1030.78C862.884 1030.78 862.862 1030.78 862.84 1030.78C862.818 1030.78 862.796 1030.78 862.774 1030.78C862.752 1030.78 862.73 1030.78 862.708 1030.78C862.686 1030.78 862.664 1030.78 862.642 1030.78C862.62 1030.78 862.598 1030.78 862.576 1030.78C862.554 1030.78 862.532 1030.78 862.51 1030.78C862.488 1030.78 862.466 1030.78 862.444 1030.78C862.422 1030.78 862.4 1030.78 862.378 1030.78C862.355 1030.78 862.333 1030.78 862.311 1030.78C862.289 1030.78 862.267 1030.78 862.245 1030.78C862.223 1030.78 862.201 1030.78 862.179 1030.78C862.157 1030.78 862.134 1030.78 862.112 1030.78C862.09 1030.78 862.068 1030.78 862.046 1030.78C862.024 1030.78 862.001 1030.78 861.979 1030.78C861.957 1030.78 861.935 1030.78 861.913 1030.78C861.891 1030.78 861.868 1030.78 861.846 1030.78C861.824 1030.78 861.802 1030.78 861.78 1030.78C861.757 1030.78 861.735 1030.78 861.713 1030.78C861.691 1030.78 861.668 1030.78 861.646 1030.78C861.624 1030.78 861.602 1030.78 861.579 1030.78C861.557 1030.78 861.535 1030.78 861.512 1030.78C861.49 1030.78 861.468 1030.78 861.445 1030.78C861.423 1030.78 861.401 1030.78 861.379 1030.78C861.356 1030.78 861.334 1030.78 861.311 1030.78C861.289 1030.78 861.267 1030.78 861.244 1030.78C861.222 1030.78 861.2 1030.78 861.177 1030.78C861.155 1030.78 861.133 1030.78 861.11 1030.78C861.088 1030.78 861.065 1030.78 861.043 1030.78C861.021 1030.78 860.998 1030.78 860.976 1030.78C860.953 1030.78 860.931 1030.78 860.908 1030.78C860.886 1030.78 860.863 1030.78 860.841 1030.78C860.818 1030.78 860.796 1030.78 860.774 1030.78C860.751 1030.78 860.729 1030.78 860.706 1030.78C860.684 1030.78 860.661 1030.78 860.639 1030.78C860.616 1030.78 860.594 1030.78 860.571 1030.78C860.548 1030.78 860.526 1030.78 860.503 1030.78C860.481 1030.78 860.458 1030.78 860.436 1030.78C860.413 1030.78 860.391 1030.78 860.368 1030.78C860.345 1030.78 860.323 1030.78 860.3 1030.78C860.278 1030.78 860.255 1030.78 860.232 1030.78C860.21 1030.78 860.187 1030.78 860.164 1030.78C860.142 1030.78 860.119 1030.78 860.096 1030.78C860.074 1030.78 860.051 1030.78 860.029 1030.78C860.006 1030.78 859.983 1030.78 859.96 1030.78C859.938 1030.78 859.915 1030.78 859.892 1030.78C859.87 1030.78 859.847 1030.78 859.824 1030.78C859.802 1030.78 859.779 1030.78 859.756 1030.78C859.733 1030.78 859.711 1030.78 859.688 1030.78C859.665 1030.78 859.642 1030.78 859.62 1030.78C859.597 1030.78 859.574 1030.78 859.551 1030.78C859.528 1030.78 859.506 1030.78 859.483 1030.78C859.46 1030.78 859.437 1030.78 859.414 1030.78C859.392 1030.78 859.369 1030.78 859.346 1030.78C859.323 1030.78 859.3 1030.78 859.277 1030.78C859.254 1030.78 859.232 1030.78 859.209 1030.78C859.186 1030.78 859.163 1030.78 859.14 1030.78C859.117 1030.78 859.094 1030.78 859.071 1030.78C859.048 1030.78 859.026 1030.78 859.003 1030.78C858.98 1030.78 858.957 1030.78 858.934 1030.78C858.911 1030.78 858.888 1030.78 858.865 1030.78C858.842 1030.78 858.819 1030.78 858.796 1030.78C858.773 1030.78 858.75 1030.78 858.727 1030.78C858.704 1030.78 858.681 1030.78 858.658 1030.78C858.635 1030.78 858.612 1030.78 858.589 1030.78C858.566 1030.78 858.543 1030.78 858.52 1030.78C858.497 1030.78 858.474 1030.78 858.451 1030.78C858.428 1030.78 858.405 1030.78 858.382 1030.78C858.358 1030.78 858.335 1030.78 858.312 1030.78C858.289 1030.78 858.266 1030.78 858.243 1030.78C858.22 1030.78 858.197 1030.78 858.174 1030.78C858.15 1030.78 858.127 1030.78 858.104 1030.78C858.081 1030.78 858.058 1030.78 858.035 1030.78C858.011 1030.78 857.988 1030.78 857.965 1030.78C857.942 1030.78 857.919 1030.78 857.896 1030.78C857.872 1030.78 857.849 1030.78 857.826 1030.78C857.803 1030.78 857.779 1030.78 857.756 1030.78C857.733 1030.78 857.71 1030.78 857.687 1030.78C857.663 1030.78 857.64 1030.78 857.617 1030.78C857.593 1030.78 857.57 1030.78 857.547 1030.78C857.524 1030.78 857.5 1030.78 857.477 1030.78C857.454 1030.78 857.43 1030.78 857.407 1030.78C857.384 1030.78 857.36 1030.78 857.337 1030.78C857.314 1030.78 857.29 1030.78 857.267 1030.78C857.244 1030.78 857.22 1030.78 857.197 1030.78C857.174 1030.78 857.15 1030.78 857.127 1030.78C857.103 1030.78 857.08 1030.78 857.057 1030.78C857.033 1030.78 857.01 1030.78 856.986 1030.78C856.963 1030.78 856.94 1030.78 856.916 1030.78C856.893 1030.78 856.869 1030.78 856.846 1030.78C856.822 1030.78 856.799 1030.78 856.775 1030.78C856.752 1030.78 856.728 1030.78 856.705 1030.78C856.681 1030.78 856.658 1030.78 856.634 1030.78C856.611 1030.78 856.587 1030.78 856.564 1030.78C856.54 1030.78 856.517 1030.78 856.493 1030.78C856.47 1030.78 856.446 1030.78 856.423 1030.78C856.399 1030.78 856.376 1030.78 856.352 1030.78C856.328 1030.78 856.305 1030.78 856.281 1030.78C856.258 1030.78 856.234 1030.78 856.21 1030.78C856.187 1030.78 856.163 1030.78 856.14 1030.78C856.116 1030.78 856.092 1030.78 856.069 1030.78C856.045 1030.78 856.021 1030.78 855.998 1030.78C855.974 1030.78 855.95 1030.78 855.927 1030.78C855.903 1030.78 855.879 1030.78 855.856 1030.78C855.832 1030.78 855.808 1030.78 855.785 1030.78C855.761 1030.78 855.737 1030.78 855.713 1030.78C855.69 1030.78 855.666 1030.78 855.642 1030.78C855.618 1030.78 855.595 1030.78 855.571 1030.78C855.547 1030.78 855.523 1030.78 855.5 1030.78C855.476 1030.78 855.452 1030.78 855.428 1030.78C855.404 1030.78 855.381 1030.78 855.357 1030.78C855.333 1030.78 855.309 1030.78 855.285 1030.78C855.262 1030.78 855.238 1030.78 855.214 1030.78C855.19 1030.78 855.166 1030.78 855.142 1030.78C855.118 1030.78 855.095 1030.78 855.071 1030.78C855.047 1030.78 855.023 1030.78 854.999 1030.78C854.975 1030.78 854.951 1030.78 854.927 1030.78C854.903 1030.78 854.879 1030.78 854.855 1030.78C854.832 1030.78 854.808 1030.78 854.784 1030.78C854.76 1030.78 854.736 1030.78 854.712 1030.78C854.688 1030.78 854.664 1030.78 854.64 1030.78C854.616 1030.78 854.592 1030.78 854.568 1030.78C854.544 1030.78 854.52 1030.78 854.496 1030.78C854.472 1030.78 854.448 1030.78 854.424 1030.78C854.4 1030.78 854.376 1030.78 854.352 1030.78C854.328 1030.78 854.303 1030.78 854.279 1030.78C854.255 1030.78 854.231 1030.78 854.207 1030.78C854.183 1030.78 854.159 1030.78 854.135 1030.78C854.111 1030.78 854.087 1030.78 854.063 1030.78C854.038 1030.78 854.014 1030.78 853.99 1030.78C853.966 1030.78 853.942 1030.78 853.918 1030.78C853.894 1030.78 853.869 1030.78 853.845 1030.78C853.821 1030.78 853.797 1030.78 853.773 1030.78C853.749 1030.78 853.724 1030.78 853.7 1030.78C853.676 1030.78 853.652 1030.78 853.627 1030.78C853.603 1030.78 853.579 1030.78 853.555 1030.78C853.531 1030.78 853.506 1030.78 853.482 1030.78C853.458 1030.78 853.433 1030.78 853.409 1030.78C853.385 1030.78 853.361 1030.78 853.336 1030.78C853.312 1030.78 853.288 1030.78 853.263 1030.78C853.239 1030.78 853.215 1030.78 853.19 1030.78C853.166 1030.78 853.142 1030.78 853.117 1030.78C853.093 1030.78 853.069 1030.78 853.044 1030.78C853.02 1030.78 852.996 1030.78 852.971 1030.78C852.947 1030.78 852.923 1030.78 852.898 1030.78C852.874 1030.78 852.849 1030.78 852.825 1030.78C852.801 1030.78 852.776 1030.78 852.752 1030.78C852.727 1030.78 852.703 1030.78 852.678 1030.78C852.654 1030.78 852.629 1030.78 852.605 1030.78C852.581 1030.78 852.556 1030.78 852.532 1030.78C852.507 1030.78 852.483 1030.78 852.458 1030.78C852.434 1030.78 852.409 1030.78 852.385 1030.78C852.36 1030.78 852.336 1030.78 852.311 1030.78C852.287 1030.78 852.262 1030.78 852.237 1030.78C852.213 1030.78 852.188 1030.78 852.164 1030.78C852.139 1030.78 852.115 1030.78 852.09 1030.78C852.065 1030.78 852.041 1030.78 852.016 1030.78C851.992 1030.78 851.967 1030.78 851.942 1030.78C851.918 1030.78 851.893 1030.78 851.869 1030.78C851.844 1030.78 851.819 1030.78 851.795 1030.78C851.77 1030.78 851.745 1030.78 851.721 1030.78C851.696 1030.78 851.671 1030.78 851.647 1030.78C851.622 1030.78 851.597 1030.78 851.573 1030.78C851.548 1030.78 851.523 1030.78 851.498 1030.78C851.474 1030.78 851.449 1030.78 851.424 1030.78C851.4 1030.78 851.375 1030.78 851.35 1030.78C851.325 1030.78 851.301 1030.78 851.276 1030.78C851.251 1030.78 851.226 1030.78 851.201 1030.78C851.177 1030.78 851.152 1030.78 851.127 1030.78C851.102 1030.78 851.077 1030.78 851.053 1030.78C851.028 1030.78 851.003 1030.78 850.978 1030.78C850.953 1030.78 850.928 1030.78 850.904 1030.78C850.879 1030.78 850.854 1030.78 850.829 1030.78C850.804 1030.78 850.779 1030.78 850.754 1030.78C850.729 1030.78 850.705 1030.78 850.68 1030.78C850.655 1030.78 850.63 1030.78 850.605 1030.78C850.58 1030.78 850.555 1030.78 850.53 1030.78C850.505 1030.78 850.48 1030.78 850.455 1030.78C850.43 1030.78 850.405 1030.78 850.38 1030.78C850.355 1030.78 850.33 1030.78 850.305 1030.78C850.28 1030.78 850.255 1030.78 850.23 1030.78C850.205 1030.78 850.18 1030.78 850.155 1030.78C850.13 1030.78 850.105 1030.78 850.08 1030.78C850.055 1030.78 850.03 1030.78 850.005 1030.78C849.98 1030.78 849.955 1030.78 849.93 1030.78C849.905 1030.78 849.88 1030.78 849.855 1030.78C849.829 1030.78 849.804 1030.78 849.779 1030.78C849.754 1030.78 849.729 1030.78 849.704 1030.78C849.679 1030.78 849.654 1030.78 849.629 1030.78C849.603 1030.78 849.578 1030.78 849.553 1030.78C849.528 1030.78 849.503 1030.78 849.478 1030.78C849.452 1030.78 849.427 1030.78 849.402 1030.78C849.377 1030.78 849.352 1030.78 849.326 1030.78C849.301 1030.78 849.276 1030.78 849.251 1030.78C849.225 1030.78 849.2 1030.78 849.175 1030.78C849.15 1030.78 849.124 1030.78 849.099 1030.78C849.074 1030.78 849.049 1030.78 849.023 1030.78C848.998 1030.78 848.973 1030.78 848.948 1030.78C848.922 1030.78 848.897 1030.78 848.872 1030.78C848.846 1030.78 848.821 1030.78 848.796 1030.78C848.77 1030.78 848.745 1030.78 848.72 1030.78C848.694 1030.78 848.669 1030.78 848.643 1030.78C848.618 1030.78 848.593 1030.78 848.567 1030.78C848.542 1030.78 848.517 1030.78 848.491 1030.78C848.466 1030.78 848.44 1030.78 848.415 1030.78C848.39 1030.78 848.364 1030.78 848.339 1030.78C848.313 1030.78 848.288 1030.78 848.262 1030.78C848.237 1030.78 848.211 1030.78 848.186 1030.78C848.16 1030.78 848.135 1030.78 848.11 1030.78C848.084 1030.78 848.059 1030.78 848.033 1030.78C848.008 1030.78 847.982 1030.78 847.957 1030.78C847.931 1030.78 847.905 1030.78 847.88 1030.78C847.854 1030.78 847.829 1030.78 847.803 1030.78C847.778 1030.78 847.752 1030.78 847.727 1030.78C847.701 1030.78 847.675 1030.78 847.65 1030.78C847.624 1030.78 847.599 1030.78 847.573 1030.78C847.547 1030.78 847.522 1030.78 847.496 1030.78C847.471 1030.78 847.445 1030.78 847.419 1030.78C847.394 1030.78 847.368 1030.78 847.342 1030.78C847.317 1030.78 847.291 1030.78 847.265 1030.78C847.24 1030.78 847.214 1030.78 847.188 1030.78C847.163 1030.78 847.137 1030.78 847.111 1030.78C847.085 1030.78 847.06 1030.78 847.034 1030.78C847.008 1030.78 846.983 1030.78 846.957 1030.78C846.931 1030.78 846.905 1030.78 846.88 1030.78C846.854 1030.78 846.828 1030.78 846.802 1030.78C846.777 1030.78 846.751 1030.78 846.725 1030.78C846.699 1030.78 846.673 1030.78 846.648 1030.78C846.622 1030.78 846.596 1030.78 846.57 1030.78C846.544 1030.78 846.518 1030.78 846.493 1030.78C846.467 1030.78 846.441 1030.78 846.415 1030.78C846.389 1030.78 846.363 1030.78 846.337 1030.78C846.311 1030.78 846.286 1030.78 846.26 1030.78C846.234 1030.78 846.208 1030.78 846.182 1030.78C846.156 1030.78 846.13 1030.78 846.104 1030.78C846.078 1030.78 846.052 1030.78 846.026 1030.78C846 1030.78 845.974 1030.78 845.949 1030.78C845.923 1030.78 845.897 1030.78 845.871 1030.78C845.845 1030.78 845.819 1030.78 845.793 1030.78C845.767 1030.78 845.741 1030.78 845.715 1030.78C845.689 1030.78 845.663 1030.78 845.637 1030.78C845.611 1030.78 845.584 1030.78 845.558 1030.78C845.532 1030.78 845.506 1030.78 845.48 1030.78C845.454 1030.78 845.428 1030.78 845.402 1030.78C845.376 1030.78 845.35 1030.78 845.324 1030.78C845.298 1030.78 845.272 1030.78 845.245 1030.78C845.219 1030.78 845.193 1030.78 845.167 1030.78C845.141 1030.78 845.115 1030.78 845.089 1030.78C845.062 1030.78 845.036 1030.78 845.01 1030.78C844.984 1030.78 844.958 1030.78 844.932 1030.78C844.905 1030.78 844.879 1030.78 844.853 1030.78C844.827 1030.78 844.801 1030.78 844.774 1030.78C844.748 1030.78 844.722 1030.78 844.696 1030.78C844.669 1030.78 844.643 1030.78 844.617 1030.78C844.591 1030.78 844.564 1030.78 844.538 1030.78C844.512 1030.78 844.486 1030.78 844.459 1030.78C844.433 1030.78 844.407 1030.78 844.38 1030.78C844.354 1030.78 844.328 1030.78 844.301 1030.78C844.275 1030.78 844.249 1030.78 844.222 1030.78C844.196 1030.78 844.17 1030.78 844.143 1030.78C844.117 1030.78 844.091 1030.78 844.064 1030.78C844.038 1030.78 844.012 1030.78 843.985 1030.78C843.959 1030.78 843.932 1030.78 843.906 1030.78C843.88 1030.78 843.853 1030.78 843.827 1030.78C843.8 1030.78 843.774 1030.78 843.747 1030.78C843.721 1030.78 843.694 1030.78 843.668 1030.78C843.642 1030.78 843.615 1030.78 843.589 1030.78C843.562 1030.78 843.536 1030.78 843.509 1030.78C843.483 1030.78 843.456 1030.78 843.43 1030.78C843.403 1030.78 843.377 1030.78 843.35 1030.78C843.324 1030.78 843.297 1030.78 843.27 1030.78C843.244 1030.78 843.217 1030.78 843.191 1030.78C843.164 1030.78 843.138 1030.78 843.111 1030.78C843.085 1030.78 843.058 1030.78 843.031 1030.78C843.005 1030.78 842.978 1030.78 842.952 1030.78C842.925 1030.78 842.898 1030.78 842.872 1030.78C842.845 1030.78 842.818 1030.78 842.792 1030.78C842.765 1030.78 842.738 1030.78 842.712 1030.78C842.685 1030.78 842.658 1030.78 842.632 1030.78C842.605 1030.78 842.578 1030.78 842.552 1030.78C842.525 1030.78 842.498 1030.78 842.472 1030.78C842.445 1030.78 842.418 1030.78 842.391 1030.78C842.365 1030.78 842.338 1030.78 842.311 1030.78C842.284 1030.78 842.258 1030.78 842.231 1030.78C842.204 1030.78 842.177 1030.78 842.151 1030.78C842.124 1030.78 842.097 1030.78 842.07 1030.78C842.043 1030.78 842.017 1030.78 841.99 1030.78C841.963 1030.78 841.936 1030.78 841.909 1030.78C841.882 1030.78 841.856 1030.78 841.829 1030.78C841.802 1030.78 841.775 1030.78 841.748 1030.78C841.721 1030.78 841.694 1030.78 841.668 1030.78C841.641 1030.78 841.614 1030.78 841.587 1030.78C841.56 1030.78 841.533 1030.78 841.506 1030.78C841.479 1030.78 841.452 1030.78 841.425 1030.78C841.398 1030.78 841.371 1030.78 841.344 1030.78C841.318 1030.78 841.291 1030.78 841.264 1030.78C841.237 1030.78 841.21 1030.78 841.183 1030.78C841.156 1030.78 841.129 1030.78 841.102 1030.78C841.075 1030.78 841.048 1030.78 841.021 1030.78C840.994 1030.78 840.967 1030.78 840.939 1030.78C840.912 1030.78 840.885 1030.78 840.858 1030.78C840.831 1030.78 840.804 1030.78 840.777 1030.78C840.75 1030.78 840.723 1030.78 840.696 1030.78C840.669 1030.78 840.642 1030.78 840.615 1030.78C840.587 1030.78 840.56 1030.78 840.533 1030.78C840.506 1030.78 840.479 1030.78 840.452 1030.78C840.425 1030.78 840.398 1030.78 840.37 1030.78C840.343 1030.78 840.316 1030.78 840.289 1030.78C840.262 1030.78 840.235 1030.78 840.207 1030.78C840.18 1030.78 840.153 1030.78 840.126 1030.78C840.099 1030.78 840.071 1030.78 840.044 1030.78C840.017 1030.78 839.99 1030.78 839.962 1030.78C839.935 1030.78 839.908 1030.78 839.881 1030.78C839.853 1030.78 839.826 1030.78 839.799 1030.78C839.771 1030.78 839.744 1030.78 839.717 1030.78C839.69 1030.78 839.662 1030.78 839.635 1030.78C839.608 1030.78 839.58 1030.78 839.553 1030.78C839.526 1030.78 839.498 1030.78 839.471 1030.78C839.444 1030.78 839.416 1030.78 839.389 1030.78C839.362 1030.78 839.334 1030.78 839.307 1030.78C839.279 1030.78 839.252 1030.78 839.225 1030.78C839.197 1030.78 839.17 1030.78 839.142 1030.78C839.115 1030.78 839.088 1030.78 839.06 1030.78C839.033 1030.78 839.005 1030.78 838.978 1030.78C838.95 1030.78 838.923 1030.78 838.895 1030.78C838.868 1030.78 838.841 1030.78 838.813 1030.78C838.786 1030.78 838.758 1030.78 838.731 1030.78C838.703 1030.78 838.676 1030.78 838.648 1030.78C838.62 1030.78 838.593 1030.78 838.565 1030.78C838.538 1030.78 838.51 1030.78 838.483 1030.78C838.455 1030.78 838.428 1030.78 838.4 1030.78C838.373 1030.78 838.345 1030.78 838.317 1030.78C838.29 1030.78 838.262 1030.78 838.235 1030.78C838.207 1030.78 838.179 1030.78 838.152 1030.78C838.124 1030.78 838.096 1030.78 838.069 1030.78C838.041 1030.78 838.014 1030.78 837.986 1030.78C837.958 1030.78 837.931 1030.78 837.903 1030.78C837.875 1030.78 837.848 1030.78 837.82 1030.78C837.792 1030.78 837.764 1030.78 837.737 1030.78C837.709 1030.78 837.681 1030.78 837.654 1030.78C837.626 1030.78 837.598 1030.78 837.57 1030.78C837.543 1030.78 837.515 1030.78 837.487 1030.78C837.459 1030.78 837.432 1030.78 837.404 1030.78C837.376 1030.78 837.348 1030.78 837.321 1030.78C837.293 1030.78 837.265 1030.78 837.237 1030.78C837.209 1030.78 837.182 1030.78 837.154 1030.78C837.126 1030.78 837.098 1030.78 837.07 1030.78C837.042 1030.78 837.014 1030.78 836.987 1030.78C836.959 1030.78 836.931 1030.78 836.903 1030.78C836.875 1030.78 836.847 1030.78 836.819 1030.78C836.792 1030.78 836.764 1030.78 836.736 1030.78C836.708 1030.78 836.68 1030.78 836.652 1030.78C836.624 1030.78 836.596 1030.78 836.568 1030.78C836.54 1030.78 836.512 1030.78 836.484 1030.78C836.456 1030.78 836.428 1030.78 836.4 1030.78C836.372 1030.78 836.344 1030.78 836.316 1030.78C836.288 1030.78 836.26 1030.78 836.232 1030.78C836.204 1030.78 836.176 1030.78 836.148 1030.78C836.12 1030.78 836.092 1030.78 836.064 1030.78C836.036 1030.78 836.008 1030.78 835.98 1030.78C835.952 1030.78 835.924 1030.78 835.896 1030.78C835.868 1030.78 835.84 1030.78 835.812 1030.78C835.783 1030.78 835.755 1030.78 835.727 1030.78C835.699 1030.78 835.671 1030.78 835.643 1030.78C835.615 1030.78 835.587 1030.78 835.558 1030.78C835.53 1030.78 835.502 1030.78 835.474 1030.78C835.446 1030.78 835.418 1030.78 835.389 1030.78C835.361 1030.78 835.333 1030.78 835.305 1030.78C835.277 1030.78 835.248 1030.78 835.22 1030.78C835.192 1030.78 835.164 1030.78 835.135 1030.78C835.107 1030.78 835.079 1030.78 835.051 1030.78C835.023 1030.78 834.994 1030.78 834.966 1030.78C834.938 1030.78 834.909 1030.78 834.881 1030.78C834.853 1030.78 834.825 1030.78 834.796 1030.78C834.768 1030.78 834.74 1030.78 834.711 1030.78C834.683 1030.78 834.655 1030.78 834.626 1030.78C834.598 1030.78 834.57 1030.78 834.541 1030.78C834.513 1030.78 834.485 1030.78 834.456 1030.78C834.428 1030.78 834.399 1030.78 834.371 1030.78C834.343 1030.78 834.314 1030.78 834.286 1030.78C834.257 1030.78 834.229 1030.78 834.201 1030.78C834.172 1030.78 834.144 1030.78 834.115 1030.78C834.087 1030.78 834.058 1030.78 834.03 1030.78C834.002 1030.78 833.973 1030.78 833.945 1030.78C833.916 1030.78 833.888 1030.78 833.859 1030.78C833.831 1030.78 833.802 1030.78 833.774 1030.78C833.745 1030.78 833.717 1030.78 833.688 1030.78C833.66 1030.78 833.631 1030.78 833.602 1030.78C833.574 1030.78 833.545 1030.78 833.517 1030.78C833.488 1030.78 833.46 1030.78 833.431 1030.78C833.403 1030.78 833.374 1030.78 833.345 1030.78C833.317 1030.78 833.288 1030.78 833.26 1030.78C833.231 1030.78 833.202 1030.78 833.174 1030.78C833.145 1030.78 833.116 1030.78 833.088 1030.78C833.059 1030.78 833.03 1030.78 833.002 1030.78C832.973 1030.78 832.944 1030.78 832.916 1030.78C832.887 1030.78 832.858 1030.78 832.83 1030.78C832.801 1030.78 832.772 1030.78 832.744 1030.78C832.715 1030.78 832.686 1030.78 832.657 1030.78C832.629 1030.78 832.6 1030.78 832.571 1030.78C832.543 1030.78 832.514 1030.78 832.485 1030.78C832.456 1030.78 832.427 1030.78 832.399 1030.78C832.37 1030.78 832.341 1030.78 832.312 1030.78C832.283 1030.78 832.255 1030.78 832.226 1030.78C832.197 1030.78 832.168 1030.78 832.139 1030.78C832.111 1030.78 832.082 1030.78 832.053 1030.78C832.024 1030.78 831.995 1030.78 831.966 1030.78C831.937 1030.78 831.909 1030.78 831.88 1030.78C831.851 1030.78 831.822 1030.78 831.793 1030.78C831.764 1030.78 831.735 1030.78 831.706 1030.78C831.677 1030.78 831.648 1030.78 831.619 1030.78C831.591 1030.78 831.562 1030.78 831.533 1030.78C831.504 1030.78 831.475 1030.78 831.446 1030.78C831.417 1030.78 831.388 1030.78 831.359 1030.78C831.33 1030.78 831.301 1030.78 831.272 1030.78C831.243 1030.78 831.214 1030.78 831.185 1030.78C831.156 1030.78 831.127 1030.78 831.098 1030.78C831.069 1030.78 831.04 1030.78 831.011 1030.78C830.982 1030.78 830.952 1030.78 830.923 1030.78C830.894 1030.78 830.865 1030.78 830.836 1030.78C830.807 1030.78 830.778 1030.78 830.749 1030.78C830.72 1030.78 830.691 1030.78 830.661 1030.78C830.632 1030.78 830.603 1030.78 830.574 1030.78C830.545 1030.78 830.516 1030.78 830.487 1030.78C830.458 1030.78 830.428 1030.78 830.399 1030.78C830.37 1030.78 830.341 1030.78 830.312 1030.78C830.282 1030.78 830.253 1030.78 830.224 1030.78C830.195 1030.78 830.166 1030.78 830.136 1030.78C830.107 1030.78 830.078 1030.78 830.049 1030.78C830.019 1030.78 829.99 1030.78 829.961 1030.78C829.932 1030.78 829.902 1030.78 829.873 1030.78C829.844 1030.78 829.815 1030.78 829.785 1030.78C829.756 1030.78 829.727 1030.78 829.697 1030.78C829.668 1030.78 829.639 1030.78 829.609 1030.78C829.58 1030.78 829.551 1030.78 829.521 1030.78C829.492 1030.78 829.463 1030.78 829.433 1030.78C829.404 1030.78 829.375 1030.78 829.345 1030.78C829.316 1030.78 829.286 1030.78 829.257 1030.78C829.228 1030.78 829.198 1030.78 829.169 1030.78C829.139 1030.78 829.11 1030.78 829.081 1030.78C829.051 1030.78 829.022 1030.78 828.992 1030.78C828.963 1030.78 828.933 1030.78 828.904 1030.78C828.874 1030.78 828.845 1030.78 828.815 1030.78C828.786 1030.78 828.756 1030.78 828.727 1030.78C828.697 1030.78 828.668 1030.78 828.638 1030.78C828.609 1030.78 828.579 1030.78 828.55 1030.78C828.52 1030.78 828.491 1030.78 828.461 1030.78C828.432 1030.78 828.402 1030.78 828.373 1030.78C828.343 1030.78 828.313 1030.78 828.284 1030.78C828.254 1030.78 828.225 1030.78 828.195 1030.78C828.165 1030.78 828.136 1030.78 828.106 1030.78C828.077 1030.78 828.047 1030.78 828.017 1030.78C827.988 1030.78 827.958 1030.78 827.928 1030.78C827.899 1030.78 827.869 1030.78 827.839 1030.78C827.81 1030.78 827.78 1030.78 827.75 1030.78C827.721 1030.78 827.691 1030.78 827.661 1030.78C827.632 1030.78 827.602 1030.78 827.572 1030.78C827.542 1030.78 827.513 1030.78 827.483 1030.78C827.453 1030.78 827.424 1030.78 827.394 1030.78C827.364 1030.78 827.334 1030.78 827.304 1030.78C827.275 1030.78 827.245 1030.78 827.215 1030.78C827.185 1030.78 827.156 1030.78 827.126 1030.78C827.096 1030.78 827.066 1030.78 827.036 1030.78C827.006 1030.78 826.977 1030.78 826.947 1030.78C826.917 1030.78 826.887 1030.78 826.857 1030.78C826.827 1030.78 826.798 1030.78 826.768 1030.78C826.738 1030.78 826.708 1030.78 826.678 1030.78C826.648 1030.78 826.618 1030.78 826.588 1030.78C826.558 1030.78 826.529 1030.78 826.499 1030.78C826.469 1030.78 826.439 1030.78 826.409 1030.78C826.379 1030.78 826.349 1030.78 826.319 1030.78C826.289 1030.78 826.259 1030.78 826.229 1030.78C826.199 1030.78 826.169 1030.78 826.139 1030.78C826.109 1030.78 826.079 1030.78 826.049 1030.78C826.019 1030.78 825.989 1030.78 825.959 1030.78C825.929 1030.78 825.899 1030.78 825.869 1030.78C825.839 1030.78 825.809 1030.78 825.779 1030.78C825.749 1030.78 825.719 1030.78 825.689 1030.78C825.658 1030.78 825.628 1030.78 825.598 1030.78C825.568 1030.78 825.538 1030.78 825.508 1030.78C825.478 1030.78 825.448 1030.78 825.418 1030.78C825.387 1030.78 825.357 1030.78 825.327 1030.78C825.297 1030.78 825.267 1030.78 825.237 1030.78C825.207 1030.78 825.176 1030.78 825.146 1030.78C825.116 1030.78 825.086 1030.78 825.056 1030.78C825.025 1030.78 824.995 1030.78 824.965 1030.78C824.935 1030.78 824.905 1030.78 824.874 1030.78C824.844 1030.78 824.814 1030.78 824.784 1030.78C824.753 1030.78 824.723 1030.78 824.693 1030.78C824.663 1030.78 824.632 1030.78 824.602 1030.78C824.572 1030.78 824.541 1030.78 824.511 1030.78C824.481 1030.78 824.45 1030.78 824.42 1030.78C824.39 1030.78 824.359 1030.78 824.329 1030.78C824.299 1030.78 824.268 1030.78 824.238 1030.78C824.208 1030.78 824.177 1030.78 824.147 1030.78C824.117 1030.78 824.086 1030.78 824.056 1030.78C824.026 1030.78 823.995 1030.78 823.965 1030.78C823.934 1030.78 823.904 1030.78 823.874 1030.78C823.843 1030.78 823.813 1030.78 823.782 1030.78C823.752 1030.78 823.721 1030.78 823.691 1030.78C823.66 1030.78 823.63 1030.78 823.599 1030.78C823.569 1030.78 823.539 1030.78 823.508 1030.78C823.478 1030.78 823.447 1030.78 823.417 1030.78C823.386 1030.78 823.356 1030.78 823.325 1030.78C823.294 1030.78 823.264 1030.78 823.233 1030.78C823.203 1030.78 823.172 1030.78 823.142 1030.78C823.111 1030.78 823.081 1030.78 823.05 1030.78C823.02 1030.78 822.989 1030.78 822.958 1030.78V1033.78ZM863.234 1033.78C874.382 1033.78 883.888 1034.27 891.763 1035.26L892.135 1032.28C884.099 1031.28 874.462 1030.78 863.234 1030.78V1033.78ZM891.809 1035.26C899.553 1035.99 906.938 1038.29 913.973 1042.17L915.422 1039.54C908.037 1035.47 900.256 1033.04 892.089 1032.28L891.809 1035.26ZM913.992 1042.18C921.141 1045.99 927.422 1052.47 932.791 1061.74L935.388 1060.24C929.818 1050.62 923.171 1043.67 915.403 1039.53L913.992 1042.18ZM935.494 1060.47L874.708 898.245L871.898 899.297L932.685 1061.52L935.494 1060.47ZM871.899 898.242L821.555 1031.75L824.362 1032.81L874.707 899.3L871.899 898.242Z" fill="url(#paint0_linear_11615_422)"/>
<g opacity="0.1" filter="url(#filter0_f_11615_422)">
<circle cx="710" cy="710" r="465" fill="#2D69FE"/>
</g>
</g>
<defs>
<filter id="filter0_f_11615_422" x="0.642776" y="0.642776" width="1418.71" height="1418.71" filterUnits="userSpaceOnUse" color-interpolation-filters="sRGB">
<feFlood flood-opacity="0" result="BackgroundImageFix"/>
<feBlend mode="normal" in="SourceGraphic" in2="BackgroundImageFix" result="shape"/>
<feGaussianBlur stdDeviation="122.179" result="effect1_foregroundBlur_11615_422"/>
</filter>
<linearGradient id="paint0_linear_11615_422" x1="856.892" y1="330.955" x2="856.892" y2="1176.67" gradientUnits="userSpaceOnUse">
<stop stop-color="white"/>
<stop offset="1" stop-color="#00E7F9"/>
</linearGradient>
</defs>
</svg>
